<svg width="300" height="88" viewBox="0 0 300 88" fill="none" xmlns="http://www.w3.org/2000/svg">
<path d="M12.6667 0.933316C1.19999 4.13332 0.666656 6.13332 0.666656 49.7333C0.666656 69.8667 1.06666 86.5333 1.46666 87.0667C1.86666 87.4667 3.06666 87.4667 4.13332 87.0667C5.73332 86.5333 6.13332 81.8667 5.99999 60.8C5.99999 46.8 5.86666 34.6667 5.99999 33.8667C5.99999 32.9333 9.19999 32.1333 13.2 31.7333C27.3333 30.5333 35.0667 19.2 29.3333 8.13332C28.2667 5.99998 26.4 3.86665 25.0667 3.33332C20.8 1.59998 14.6667 0.399982 12.6667 0.933316ZM22.9333 7.33332C29.4667 11.8666 27.0667 22.5333 18.6667 26.1333C13.2 28.4 6.53332 28.5333 5.33332 26.5333C3.46666 23.7333 6.13332 10.6666 9.06666 7.99998C12.4 4.79998 18.9333 4.53332 22.9333 7.33332Z" fill="#ACC6DA"/>
<path d="M78.9333 2.26667C77.7333 4.26667 65.8667 62.9333 66.5333 63.6C68.9333 66 71.0667 61.6 73.3333 49.4667L75.7333 36H81.8667H88L91.8667 50.6667C95.4667 64.5333 97.2 67.7333 98.8 63.6C99.2 62.5333 96 48.4 91.7333 31.8667C85.8667 9.06667 83.4667 2 81.7333 1.6C80.5333 1.33334 79.3333 1.73334 78.9333 2.26667ZM84.1333 20.1333C86.9333 30.8 86.6667 32 82.1333 32C79.8667 32 77.8667 31.6 77.6 30.9333C76.9333 29.7333 80.8 11.7333 81.6 12.5333C81.8667 12.8 83.0667 16.2667 84.1333 20.1333Z" fill="#ACC6DA"/>
<path d="M98.9333 2.26666C98.5333 2.93332 101.467 9.33333 105.467 16.4L112.667 29.3333V47.3333C112.667 63.7333 112.933 65.3333 115.067 65.3333C117.2 65.3333 117.467 64 116.933 48.9333C116.267 30.9333 116 32.4 125.6 16L131.467 5.99999L138.667 6.39999L146 6.93333V36.1333C146 59.7333 146.4 65.3333 147.867 65.3333C150 65.3333 151.333 50.9333 151.333 24.9333V6.66666H158C162.933 6.66666 164.667 6.13333 164.667 4.79999C164.667 3.19999 161.333 2.79999 146.667 2.39999L128.8 1.99999L122.533 12.4C119.067 18.1333 115.733 22.5333 115.067 22.4C114.267 22.1333 111.2 17.4667 108.267 12.1333C102.8 2.53332 100.4 -8.49366e-06 98.9333 2.26666Z" fill="#ACC6DA"/>
<path d="M213.733 3.46666C208.133 6.39999 207.2 12.2667 207.6 40.6667C208.133 70.5333 210.4 75.2 211.067 47.3333L211.467 29.3333H217.467C228.133 29.3333 234 24.5333 234 15.7333C234 9.99999 230.8 5.59999 225.2 3.19999C219.733 0.933327 218.267 0.933327 213.733 3.46666ZM227.2 10.1333C230.8 14.8 230.667 18 226.667 22C224.267 24.5333 222 25.3333 217.333 25.3333C211.333 25.3333 211.333 25.3333 211.333 20.6667C211.333 18 212.267 13.8667 213.2 11.3333C214.933 7.33333 215.867 6.66666 219.867 6.66666C223.2 6.66666 225.2 7.59999 227.2 10.1333Z" fill="#ACC6DA"/>
<path d="M276.667 2.26666C276.667 2.79999 274 16.2667 270.667 32C267.333 47.7333 264.667 61.3333 264.667 62.2667C264.667 64.8 268.4 64.4 269.2 61.6C269.6 60.4 270.933 54 272.133 47.6L274.4 35.8667L280.533 36.2667L286.667 36.6667L290.267 50.4C294.133 65.3333 294.667 66.5333 296.8 64.4C297.733 63.4667 295.6 53.4667 290.267 32.5333C283.2 5.19999 282.133 1.99999 279.6 1.59999C278 1.33332 276.667 1.59999 276.667 2.26666ZM284.133 27.6C284.933 31.8667 284.933 32 280.133 32C274.8 32 274.933 32.2667 276.667 24C279.6 10.5333 279.467 10.6667 281.467 17.2C282.533 20.5333 283.733 25.2 284.133 27.6Z" fill="#ACC6DA"/>
<path d="M37.4667 4.26666C37.2 5.19999 36.5333 19.3333 36.1333 35.6L35.3333 65.3333H48.6667C61.0667 65.3333 62 65.2 62 62.6667C62 60.2667 61.0667 60 50.5333 60C40.4 60 39.2 59.7333 39.8667 57.6C40.1333 56.4 40.6667 43.7333 40.9333 29.4667C41.2 9.59999 40.9333 3.46666 39.7333 3.06666C38.8 2.66666 37.7333 3.19999 37.4667 4.26666Z" fill="#ACC6DA"/>
<path d="M178.267 4.66667C173.733 8 168.933 17.2 167.333 26.2667C164.133 44.6667 172.267 65.3333 182.933 65.3333C187.467 65.3333 194.8 58 197.6 50.9333C201.333 41.2 200.8 24.1333 196.533 14.6667C194.667 10.5333 192 6.26667 190.8 4.93333C187.867 2.13333 182.267 2 178.267 4.66667ZM188.533 9.46666C192.8 14 195.333 23.6 195.333 34.6667C195.333 51.2 187.2 63.8667 179.6 59.0667C174.533 56 172 47.7333 172 34.6667C172 21.4667 173.6 16.4 179.733 9.6C183.2 5.86667 185.2 5.86667 188.533 9.46666Z" fill="#ACC6DA"/>
<path d="M236.667 4.66666C236.667 5.99999 238.133 6.66666 241.333 6.66666H246V33.3333V60H241.333C237.6 60 236.667 60.5333 236.667 62.5333C236.667 64.6667 237.467 65.0667 240.4 64.8C242.4 64.5333 247.467 64.2667 251.733 64.1333C257.467 64 259.333 63.4667 259.333 62C259.333 60.6667 258 60 255.467 60C251.733 60 251.733 59.8667 250.8 49.7333C250.4 44.1333 250 32.1333 250 23.0667V6.66666H254.667C257.867 6.66666 259.333 5.99999 259.333 4.66666C259.333 3.06666 257.2 2.66666 248 2.66666C238.8 2.66666 236.667 3.06666 236.667 4.66666Z" fill="#ACC6DA"/>
<path d="M31.8667 76.1333C31.4667 76.9333 31.8667 78.1333 32.8 78.8C33.8667 79.4667 92.2667 79.8667 166.667 79.6C291.2 79.3333 298.667 79.2 299.067 76.9333C299.467 74.8 292.4 74.6667 166.133 74.6667C69.7333 74.6667 32.5333 75.0667 31.8667 76.1333Z" fill="#ACC6DA"/>
</svg>
